<mxfile host="app.diagrams.net" modified="2022-08-11T17:07:01.918Z" agent="5.0 (Windows NT 10.0; Win64; x64) AppleWebKit/537.36 (KHTML, like Gecko) Chrome/104.0.0.0 Safari/537.36" etag="zeNUsc4-SVJEV1fkYH1y" version="20.2.1" type="github">
  <diagram id="C5RBs43oDa-KdzZeNtuy" name="Page-1">
    <mxGraphModel dx="1703" dy="767" grid="1" gridSize="10" guides="1" tooltips="1" connect="1" arrows="1" fold="1" page="1" pageScale="1" pageWidth="827" pageHeight="1169" math="0" shadow="0">
      <root>
        <mxCell id="WIyWlLk6GJQsqaUBKTNV-0" />
        <mxCell id="WIyWlLk6GJQsqaUBKTNV-1" parent="WIyWlLk6GJQsqaUBKTNV-0" />
        <mxCell id="WIyWlLk6GJQsqaUBKTNV-3" value="Mulai" style="rounded=1;whiteSpace=wrap;html=1;fontSize=12;glass=0;strokeWidth=1;shadow=0;" parent="WIyWlLk6GJQsqaUBKTNV-1" vertex="1">
          <mxGeometry x="175" y="80" width="90" height="30" as="geometry" />
        </mxCell>
        <mxCell id="q0ZCxbvo5iEBTx7aLQQ8-6" style="edgeStyle=none;rounded=0;orthogonalLoop=1;jettySize=auto;html=1;entryX=1;entryY=0.5;entryDx=0;entryDy=0;" edge="1" parent="WIyWlLk6GJQsqaUBKTNV-1" source="WIyWlLk6GJQsqaUBKTNV-10" target="q0ZCxbvo5iEBTx7aLQQ8-4">
          <mxGeometry relative="1" as="geometry">
            <Array as="points">
              <mxPoint x="380" y="340" />
              <mxPoint x="380" y="250" />
            </Array>
          </mxGeometry>
        </mxCell>
        <mxCell id="q0ZCxbvo5iEBTx7aLQQ8-15" style="edgeStyle=none;rounded=0;orthogonalLoop=1;jettySize=auto;html=1;entryX=0.5;entryY=0;entryDx=0;entryDy=0;" edge="1" parent="WIyWlLk6GJQsqaUBKTNV-1" source="WIyWlLk6GJQsqaUBKTNV-10" target="q0ZCxbvo5iEBTx7aLQQ8-14">
          <mxGeometry relative="1" as="geometry" />
        </mxCell>
        <mxCell id="WIyWlLk6GJQsqaUBKTNV-10" value="Terkoneksi ke Internet ?" style="rhombus;whiteSpace=wrap;html=1;shadow=0;fontFamily=Helvetica;fontSize=12;align=center;strokeWidth=1;spacing=6;spacingTop=-4;" parent="WIyWlLk6GJQsqaUBKTNV-1" vertex="1">
          <mxGeometry x="160" y="289" width="120" height="100" as="geometry" />
        </mxCell>
        <mxCell id="WIyWlLk6GJQsqaUBKTNV-11" value="Selesai" style="rounded=1;whiteSpace=wrap;html=1;fontSize=12;glass=0;strokeWidth=1;shadow=0;" parent="WIyWlLk6GJQsqaUBKTNV-1" vertex="1">
          <mxGeometry x="175" y="680" width="90" height="30" as="geometry" />
        </mxCell>
        <mxCell id="q0ZCxbvo5iEBTx7aLQQ8-1" value="" style="endArrow=classic;html=1;rounded=0;exitX=0.5;exitY=1;exitDx=0;exitDy=0;entryX=0.5;entryY=0;entryDx=0;entryDy=0;" edge="1" parent="WIyWlLk6GJQsqaUBKTNV-1" source="WIyWlLk6GJQsqaUBKTNV-3" target="q0ZCxbvo5iEBTx7aLQQ8-3">
          <mxGeometry width="50" height="50" relative="1" as="geometry">
            <mxPoint x="250" y="160" as="sourcePoint" />
            <mxPoint x="220" y="170" as="targetPoint" />
          </mxGeometry>
        </mxCell>
        <mxCell id="q0ZCxbvo5iEBTx7aLQQ8-3" value="Inisialisasi data dari sensor - sensor" style="rounded=0;whiteSpace=wrap;html=1;" vertex="1" parent="WIyWlLk6GJQsqaUBKTNV-1">
          <mxGeometry x="115" y="129" width="210" height="30" as="geometry" />
        </mxCell>
        <mxCell id="q0ZCxbvo5iEBTx7aLQQ8-4" value="ESP32 menginisialisasi untuk terkoneksi ke jaringan WiFi" style="rounded=0;whiteSpace=wrap;html=1;" vertex="1" parent="WIyWlLk6GJQsqaUBKTNV-1">
          <mxGeometry x="88.75" y="231" width="262.5" height="39" as="geometry" />
        </mxCell>
        <mxCell id="q0ZCxbvo5iEBTx7aLQQ8-5" value="" style="endArrow=classic;html=1;rounded=0;exitX=0.5;exitY=1;exitDx=0;exitDy=0;entryX=0.5;entryY=0;entryDx=0;entryDy=0;" edge="1" parent="WIyWlLk6GJQsqaUBKTNV-1" source="q0ZCxbvo5iEBTx7aLQQ8-4" target="WIyWlLk6GJQsqaUBKTNV-10">
          <mxGeometry width="50" height="50" relative="1" as="geometry">
            <mxPoint x="215" y="277" as="sourcePoint" />
            <mxPoint x="215" y="298" as="targetPoint" />
          </mxGeometry>
        </mxCell>
        <mxCell id="q0ZCxbvo5iEBTx7aLQQ8-7" value="Tidak" style="text;html=1;strokeColor=none;fillColor=none;align=center;verticalAlign=middle;whiteSpace=wrap;rounded=0;" vertex="1" parent="WIyWlLk6GJQsqaUBKTNV-1">
          <mxGeometry x="280" y="309" width="60" height="30" as="geometry" />
        </mxCell>
        <mxCell id="q0ZCxbvo5iEBTx7aLQQ8-9" value="ESP32 mengumpulkan data dari sensor - sensor" style="rounded=0;whiteSpace=wrap;html=1;" vertex="1" parent="WIyWlLk6GJQsqaUBKTNV-1">
          <mxGeometry x="67.5" y="180" width="305" height="30" as="geometry" />
        </mxCell>
        <mxCell id="q0ZCxbvo5iEBTx7aLQQ8-10" value="" style="endArrow=classic;html=1;rounded=0;exitX=0.5;exitY=1;exitDx=0;exitDy=0;entryX=0.5;entryY=0;entryDx=0;entryDy=0;" edge="1" parent="WIyWlLk6GJQsqaUBKTNV-1" source="q0ZCxbvo5iEBTx7aLQQ8-3" target="q0ZCxbvo5iEBTx7aLQQ8-9">
          <mxGeometry width="50" height="50" relative="1" as="geometry">
            <mxPoint x="230" y="160" as="sourcePoint" />
            <mxPoint x="230" y="179" as="targetPoint" />
          </mxGeometry>
        </mxCell>
        <mxCell id="q0ZCxbvo5iEBTx7aLQQ8-11" value="" style="endArrow=classic;html=1;rounded=0;exitX=0.5;exitY=1;exitDx=0;exitDy=0;" edge="1" parent="WIyWlLk6GJQsqaUBKTNV-1" source="q0ZCxbvo5iEBTx7aLQQ8-9" target="q0ZCxbvo5iEBTx7aLQQ8-4">
          <mxGeometry width="50" height="50" relative="1" as="geometry">
            <mxPoint x="230" y="169" as="sourcePoint" />
            <mxPoint x="230" y="190" as="targetPoint" />
          </mxGeometry>
        </mxCell>
        <mxCell id="q0ZCxbvo5iEBTx7aLQQ8-17" style="edgeStyle=none;rounded=0;orthogonalLoop=1;jettySize=auto;html=1;entryX=1;entryY=0.5;entryDx=0;entryDy=0;" edge="1" parent="WIyWlLk6GJQsqaUBKTNV-1" source="q0ZCxbvo5iEBTx7aLQQ8-13" target="q0ZCxbvo5iEBTx7aLQQ8-14">
          <mxGeometry relative="1" as="geometry">
            <Array as="points">
              <mxPoint x="360" y="510" />
              <mxPoint x="360" y="425" />
            </Array>
          </mxGeometry>
        </mxCell>
        <mxCell id="q0ZCxbvo5iEBTx7aLQQ8-21" value="" style="edgeStyle=none;rounded=0;orthogonalLoop=1;jettySize=auto;html=1;" edge="1" parent="WIyWlLk6GJQsqaUBKTNV-1" source="q0ZCxbvo5iEBTx7aLQQ8-13" target="q0ZCxbvo5iEBTx7aLQQ8-19">
          <mxGeometry relative="1" as="geometry" />
        </mxCell>
        <mxCell id="q0ZCxbvo5iEBTx7aLQQ8-13" value="Terhubung ke Database ?" style="rhombus;whiteSpace=wrap;html=1;shadow=0;fontFamily=Helvetica;fontSize=12;align=center;strokeWidth=1;spacing=6;spacingTop=-4;" vertex="1" parent="WIyWlLk6GJQsqaUBKTNV-1">
          <mxGeometry x="161" y="460" width="120" height="100" as="geometry" />
        </mxCell>
        <mxCell id="q0ZCxbvo5iEBTx7aLQQ8-16" style="edgeStyle=none;rounded=0;orthogonalLoop=1;jettySize=auto;html=1;entryX=0.5;entryY=0;entryDx=0;entryDy=0;" edge="1" parent="WIyWlLk6GJQsqaUBKTNV-1" source="q0ZCxbvo5iEBTx7aLQQ8-14" target="q0ZCxbvo5iEBTx7aLQQ8-13">
          <mxGeometry relative="1" as="geometry" />
        </mxCell>
        <mxCell id="q0ZCxbvo5iEBTx7aLQQ8-14" value="Memasukkan data ke Database" style="rounded=0;whiteSpace=wrap;html=1;" vertex="1" parent="WIyWlLk6GJQsqaUBKTNV-1">
          <mxGeometry x="119" y="410" width="203" height="30" as="geometry" />
        </mxCell>
        <mxCell id="q0ZCxbvo5iEBTx7aLQQ8-18" value="Tidak" style="text;html=1;strokeColor=none;fillColor=none;align=center;verticalAlign=middle;whiteSpace=wrap;rounded=0;" vertex="1" parent="WIyWlLk6GJQsqaUBKTNV-1">
          <mxGeometry x="280" y="480" width="60" height="30" as="geometry" />
        </mxCell>
        <mxCell id="q0ZCxbvo5iEBTx7aLQQ8-23" value="" style="edgeStyle=none;rounded=0;orthogonalLoop=1;jettySize=auto;html=1;" edge="1" parent="WIyWlLk6GJQsqaUBKTNV-1" source="q0ZCxbvo5iEBTx7aLQQ8-19" target="q0ZCxbvo5iEBTx7aLQQ8-22">
          <mxGeometry relative="1" as="geometry" />
        </mxCell>
        <mxCell id="q0ZCxbvo5iEBTx7aLQQ8-19" value="Memperbaharui Data" style="rounded=0;whiteSpace=wrap;html=1;" vertex="1" parent="WIyWlLk6GJQsqaUBKTNV-1">
          <mxGeometry x="147.5" y="580" width="145" height="30" as="geometry" />
        </mxCell>
        <mxCell id="q0ZCxbvo5iEBTx7aLQQ8-24" value="" style="edgeStyle=none;rounded=0;orthogonalLoop=1;jettySize=auto;html=1;" edge="1" parent="WIyWlLk6GJQsqaUBKTNV-1" source="q0ZCxbvo5iEBTx7aLQQ8-22" target="WIyWlLk6GJQsqaUBKTNV-11">
          <mxGeometry relative="1" as="geometry" />
        </mxCell>
        <mxCell id="q0ZCxbvo5iEBTx7aLQQ8-22" value="Menampilkan Data" style="rounded=0;whiteSpace=wrap;html=1;" vertex="1" parent="WIyWlLk6GJQsqaUBKTNV-1">
          <mxGeometry x="158" y="630" width="122.5" height="30" as="geometry" />
        </mxCell>
        <mxCell id="q0ZCxbvo5iEBTx7aLQQ8-25" value="Iya" style="text;html=1;strokeColor=none;fillColor=none;align=center;verticalAlign=middle;whiteSpace=wrap;rounded=0;" vertex="1" parent="WIyWlLk6GJQsqaUBKTNV-1">
          <mxGeometry x="221" y="550" width="60" height="30" as="geometry" />
        </mxCell>
        <mxCell id="q0ZCxbvo5iEBTx7aLQQ8-26" value="Iya" style="text;html=1;strokeColor=none;fillColor=none;align=center;verticalAlign=middle;whiteSpace=wrap;rounded=0;" vertex="1" parent="WIyWlLk6GJQsqaUBKTNV-1">
          <mxGeometry x="220" y="380" width="60" height="30" as="geometry" />
        </mxCell>
      </root>
    </mxGraphModel>
  </diagram>
</mxfile>
